<?xml version="1.0" encoding="UTF-8"?>
<!DOCTYPE svg PUBLIC "-//W3C//DTD SVG 1.1//EN" "http://www.w3.org/Graphics/SVG/1.1/DTD/svg11.dtd">
<svg xmlns="http://www.w3.org/2000/svg" version="1.1" width="19px" height="19px" style="shape-rendering:geometricPrecision; text-rendering:geometricPrecision; image-rendering:optimizeQuality; fill-rule:evenodd; clip-rule:evenodd" xmlns:xlink="http://www.w3.org/1999/xlink">
<g><path style="opacity:0.523" fill="#000000" d="M 7.5,-0.5 C 8.5,-0.5 9.5,-0.5 10.5,-0.5C 10.5,2.16667 10.5,4.83333 10.5,7.5C 13.1667,7.5 15.8333,7.5 18.5,7.5C 18.5,8.5 18.5,9.5 18.5,10.5C 15.8333,10.5 13.1667,10.5 10.5,10.5C 10.5,13.1667 10.5,15.8333 10.5,18.5C 9.5,18.5 8.5,18.5 7.5,18.5C 7.5,15.8333 7.5,13.1667 7.5,10.5C 4.83333,10.5 2.16667,10.5 -0.5,10.5C -0.5,9.5 -0.5,8.5 -0.5,7.5C 2.16667,7.5 4.83333,7.5 7.5,7.5C 7.5,4.83333 7.5,2.16667 7.5,-0.5 Z"/></g>
</svg>
